<svg width="14" height="14" viewBox="0 0 14 14" fill="none" xmlns="http://www.w3.org/2000/svg">
<path fill-rule="evenodd" clip-rule="evenodd" d="M13.6567 6.95957C13.6567 7.39239 13.6126 7.82461 13.5261 8.24592C13.4417 8.65723 13.3167 9.06103 13.1529 9.44705C12.9929 9.82624 12.7945 10.1916 12.5626 10.5324C12.3342 10.871 12.071 11.1887 11.7819 11.4783C11.4922 11.7666 11.1735 12.0291 10.835 12.2585C10.4931 12.4887 10.1272 12.6869 9.74777 12.8476C9.3612 13.0105 8.95646 13.1353 8.54551 13.2196C8.12364 13.3064 7.68985 13.3507 7.2564 13.3507C6.82263 13.3507 6.38886 13.3064 5.96759 13.2196C5.55602 13.1353 5.1513 13.0105 4.76503 12.8476C4.38564 12.6869 4.01936 12.4887 3.67747 12.2585C3.33902 12.0291 3.02025 11.7666 2.73117 11.4783C2.44179 11.1887 2.17864 10.871 1.94988 10.5324C1.71924 10.1916 1.52047 9.82621 1.35985 9.44705C1.19607 9.06103 1.07077 8.6572 0.986074 8.24592C0.900452 7.82461 0.856689 7.39239 0.856689 6.95957C0.856689 6.52643 0.900427 6.09328 0.986099 5.67289C1.07079 5.26159 1.1961 4.85716 1.35987 4.47177C1.5205 4.0923 1.71927 3.72657 1.94991 3.38578C2.17867 3.04689 2.44182 2.72981 2.7312 2.4399C3.02028 2.15154 3.33904 1.88974 3.6775 1.66068C4.01938 1.42943 4.38567 1.23129 4.76505 1.07025C5.15133 0.907009 5.55602 0.781889 5.96762 0.698266C6.38889 0.612143 6.82266 0.568443 7.25643 0.568443C7.68987 0.568443 8.12364 0.612143 8.54554 0.698266C8.95649 0.781914 9.3612 0.907034 9.7478 1.07025C10.1272 1.23127 10.4931 1.42943 10.835 1.66068C11.1735 1.88974 11.4923 2.15154 11.782 2.4399C12.071 2.72981 12.3342 3.04689 12.5626 3.38578C12.7945 3.72657 12.9929 4.09233 13.1529 4.47177C13.3167 4.85716 13.4417 5.26159 13.5261 5.67289C13.6126 6.09328 13.6567 6.52643 13.6567 6.95957ZM4.92438 2.02298C3.40022 2.74168 2.26266 4.1441 1.90795 5.83425C2.05204 5.8355 4.32966 5.86422 6.95385 5.16798C6.00788 3.48968 4.9972 2.12006 4.92438 2.02298ZM7.40668 6.0084C4.59249 6.8497 1.89202 6.78917 1.79515 6.78544C1.79357 6.8441 1.79077 6.90088 1.79077 6.95956C1.79077 8.36165 2.32048 9.63987 3.19115 10.6064C3.18927 10.6035 4.685 7.9538 7.63451 7.00139C7.70575 6.97767 7.77828 6.95644 7.85014 6.93585C7.71297 6.62568 7.56324 6.31485 7.40668 6.0084ZM10.8659 2.86338C9.90369 2.0161 8.64021 1.50217 7.25638 1.50217C6.81229 1.50217 6.38133 1.55585 5.9685 1.65508C6.05036 1.76494 7.077 3.1249 8.01172 4.83875C10.074 4.06671 10.8525 2.88334 10.8659 2.86338ZM8.22271 7.84021C8.21053 7.84424 8.19836 7.84772 8.18646 7.85207C4.96166 8.97466 3.90856 11.237 3.89716 11.2617C4.82504 11.9822 5.98885 12.417 7.25642 12.417C8.01331 12.417 8.73428 12.2631 9.39025 11.9844C9.30931 11.5076 8.9918 9.83619 8.22271 7.84021ZM10.3106 11.4858C11.5378 10.6588 12.4094 9.34564 12.6526 7.82458C12.5401 7.78838 11.0109 7.30499 9.24677 7.58742C9.96368 9.55471 10.255 11.1569 10.3106 11.4858ZM8.43242 5.652C8.55927 5.91227 8.68212 6.17717 8.79554 6.4434C8.83588 6.5389 8.87525 6.63253 8.91368 6.72613C10.7913 6.4902 12.6411 6.88715 12.7201 6.90336C12.7076 5.60955 12.2442 4.42213 11.4773 3.49251C11.467 3.50714 10.5903 4.77196 8.43242 5.652Z" fill="white"/>
</svg>
