<svg width="39" height="27" viewBox="0 0 39 27" fill="none" xmlns="http://www.w3.org/2000/svg">
<path d="M38.1797 9.58406L30.7099 0.872339C30.525 0.651339 30.2939 0.473618 30.0328 0.35172C29.7717 0.229823 29.487 0.166722 29.1989 0.16687H2.25C1.72786 0.16687 1.2271 0.374291 0.857884 0.743504C0.488671 1.11272 0.28125 1.61348 0.28125 2.13562V20.5106C0.28125 21.0328 0.488671 21.5335 0.857884 21.9027C1.2271 22.2719 1.72786 22.4794 2.25 22.4794H5.57883C5.73732 23.572 6.28404 24.571 7.1189 25.2935C7.95377 26.016 9.02092 26.4137 10.125 26.4137C11.2291 26.4137 12.2962 26.016 13.1311 25.2935C13.966 24.571 14.5127 23.572 14.6712 22.4794H23.9538C24.1123 23.572 24.659 24.571 25.4939 25.2935C26.3288 26.016 27.3959 26.4137 28.5 26.4137C29.6041 26.4137 30.6712 26.016 31.5061 25.2935C32.341 24.571 32.8877 23.572 33.0462 22.4794H36.375C36.8971 22.4794 37.3979 22.2719 37.7671 21.9027C38.1363 21.5335 38.3438 21.0328 38.3438 20.5106V10.0106C38.3419 9.85337 38.2837 9.70199 38.1797 9.58406ZM29.7075 1.72054L36.2602 9.35437H25.2188V1.47937H29.1989C29.2963 1.47933 29.3924 1.50095 29.4804 1.54266C29.5683 1.58437 29.6459 1.64513 29.7075 1.72054ZM13.4062 9.35437V1.47937H23.9062V9.35437H13.4062ZM2.25 1.47937H12.0938V9.35437H1.59375V2.13562C1.59375 1.96157 1.66289 1.79465 1.78596 1.67158C1.90903 1.54851 2.07595 1.47937 2.25 1.47937ZM10.125 25.1044C9.47603 25.1044 8.84163 24.9119 8.30204 24.5514C7.76244 24.1908 7.34187 23.6784 7.09352 23.0788C6.84517 22.4792 6.78019 21.8195 6.9068 21.183C7.03341 20.5465 7.34591 19.9618 7.80481 19.5029C8.2637 19.044 8.84836 18.7315 9.48486 18.6049C10.1214 18.4783 10.7811 18.5433 11.3807 18.7916C11.9803 19.04 12.4927 19.4606 12.8533 20.0002C13.2138 20.5398 13.4062 21.1742 13.4062 21.8231C13.4062 22.6934 13.0605 23.528 12.4452 24.1433C11.8298 24.7587 10.9952 25.1044 10.125 25.1044ZM28.5 25.1044C27.851 25.1044 27.2166 24.9119 26.677 24.5514C26.1374 24.1908 25.7169 23.6784 25.4685 23.0788C25.2202 22.4792 25.1552 21.8195 25.2818 21.183C25.4084 20.5465 25.7209 19.9618 26.1798 19.5029C26.6387 19.044 27.2234 18.7315 27.8599 18.6049C28.4964 18.4783 29.1561 18.5433 29.7557 18.7916C30.3553 19.04 30.8677 19.4606 31.2283 20.0002C31.5888 20.5398 31.7812 21.1742 31.7812 21.8231C31.7812 22.6934 31.4355 23.528 30.8202 24.1433C30.2048 24.7587 29.3702 25.1044 28.5 25.1044ZM36.375 21.1669H33.0462C32.8877 20.0742 32.341 19.0752 31.5061 18.3527C30.6712 17.6302 29.6041 17.2326 28.5 17.2326C27.3959 17.2326 26.3288 17.6302 25.4939 18.3527C24.659 19.0752 24.1123 20.0742 23.9538 21.1669H14.6712C14.5127 20.0742 13.966 19.0752 13.1311 18.3527C12.2962 17.6302 11.2291 17.2326 10.125 17.2326C9.02092 17.2326 7.95377 17.6302 7.1189 18.3527C6.28404 19.0752 5.73732 20.0742 5.57883 21.1669H2.25C2.07595 21.1669 1.90903 21.0977 1.78596 20.9747C1.66289 20.8516 1.59375 20.6847 1.59375 20.5106V10.6669H37.0312V20.5106C37.0312 20.6847 36.9621 20.8516 36.839 20.9747C36.716 21.0977 36.549 21.1669 36.375 21.1669Z" fill="white"/>
</svg>
