<svg width="40" height="30" viewBox="0 0 40 30" fill="none" xmlns="http://www.w3.org/2000/svg">
<path d="M38.375 12.3544H36.1766L31.4466 1.71164C31.2917 1.36265 31.0386 1.06626 30.7181 0.858563C30.3977 0.650869 30.0238 0.54084 29.642 0.541877H10.3531C9.97128 0.54084 9.59737 0.650869 9.27694 0.858563C8.95651 1.06626 8.7034 1.36265 8.54844 1.71164L3.82344 12.3544H1.625C1.45095 12.3544 1.28403 12.4235 1.16096 12.5466C1.03789 12.6697 0.96875 12.8366 0.96875 13.0106C0.96875 13.1847 1.03789 13.3516 1.16096 13.4747C1.28403 13.5977 1.45095 13.6669 1.625 13.6669H3.59375V27.4481C3.59375 27.9703 3.80117 28.471 4.17038 28.8402C4.5396 29.2095 5.04036 29.4169 5.5625 29.4169H9.5C10.0221 29.4169 10.5229 29.2095 10.8921 28.8402C11.2613 28.471 11.4688 27.9703 11.4688 27.4481V24.1669H28.5312V27.4481C28.5312 27.9703 28.7387 28.471 29.1079 28.8402C29.4771 29.2095 29.9779 29.4169 30.5 29.4169H34.4375C34.9596 29.4169 35.4604 29.2095 35.8296 28.8402C36.1988 28.471 36.4062 27.9703 36.4062 27.4481V13.6669H38.375C38.549 13.6669 38.716 13.5977 38.839 13.4747C38.9621 13.3516 39.0312 13.1847 39.0312 13.0106C39.0312 12.8366 38.9621 12.6697 38.839 12.5466C38.716 12.4235 38.549 12.3544 38.375 12.3544ZM9.75266 2.24485C9.80416 2.12858 9.88832 2.02979 9.99492 1.96047C10.1015 1.89115 10.226 1.85429 10.3531 1.85438H29.6469C29.774 1.85429 29.8985 1.89115 30.0051 1.96047C30.1117 2.02979 30.1958 2.12858 30.2473 2.24485L34.7394 12.3544H5.26062L9.75266 2.24485ZM10.1562 27.4481C10.1562 27.6222 10.0871 27.7891 9.96404 27.9122C9.84097 28.0352 9.67405 28.1044 9.5 28.1044H5.5625C5.38845 28.1044 5.22153 28.0352 5.09846 27.9122C4.97539 27.7891 4.90625 27.6222 4.90625 27.4481V24.1669H10.1562V27.4481ZM34.4375 28.1044H30.5C30.326 28.1044 30.159 28.0352 30.036 27.9122C29.9129 27.7891 29.8438 27.6222 29.8438 27.4481V24.1669H35.0938V27.4481C35.0938 27.6222 35.0246 27.7891 34.9015 27.9122C34.7785 28.0352 34.6115 28.1044 34.4375 28.1044ZM35.0938 22.8544H4.90625V13.6669H35.0938V22.8544ZM8.84375 18.2606C8.84375 18.0866 8.91289 17.9197 9.03596 17.7966C9.15903 17.6735 9.32595 17.6044 9.5 17.6044H12.125C12.299 17.6044 12.466 17.6735 12.589 17.7966C12.7121 17.9197 12.7812 18.0866 12.7812 18.2606C12.7812 18.4347 12.7121 18.6016 12.589 18.7247C12.466 18.8477 12.299 18.9169 12.125 18.9169H9.5C9.32595 18.9169 9.15903 18.8477 9.03596 18.7247C8.91289 18.6016 8.84375 18.4347 8.84375 18.2606ZM27.2188 18.2606C27.2188 18.0866 27.2879 17.9197 27.411 17.7966C27.534 17.6735 27.701 17.6044 27.875 17.6044H30.5C30.674 17.6044 30.841 17.6735 30.964 17.7966C31.0871 17.9197 31.1562 18.0866 31.1562 18.2606C31.1562 18.4347 31.0871 18.6016 30.964 18.7247C30.841 18.8477 30.674 18.9169 30.5 18.9169H27.875C27.701 18.9169 27.534 18.8477 27.411 18.7247C27.2879 18.6016 27.2188 18.4347 27.2188 18.2606Z" fill="white"/>
</svg>
