<svg width="38" height="37" viewBox="0 0 38 37" fill="none" xmlns="http://www.w3.org/2000/svg">
<path d="M36.0625 34.7137H31.7969V2.5575H33.4375C33.6986 2.5575 33.949 2.45378 34.1336 2.26918C34.3182 2.08457 34.4219 1.83419 34.4219 1.57312C34.4219 1.31205 34.3182 1.06167 34.1336 0.877062C33.949 0.692456 33.6986 0.588745 33.4375 0.588745H4.5625C4.30143 0.588745 4.05105 0.692456 3.86644 0.877062C3.68184 1.06167 3.57812 1.31205 3.57812 1.57312C3.57812 1.83419 3.68184 2.08457 3.86644 2.26918C4.05105 2.45378 4.30143 2.5575 4.5625 2.5575H6.20312V34.7137H1.9375C1.67643 34.7137 1.42605 34.8175 1.24144 35.0021C1.05684 35.1867 0.953125 35.437 0.953125 35.6981C0.953125 35.9592 1.05684 36.2096 1.24144 36.3942C1.42605 36.5788 1.67643 36.6825 1.9375 36.6825H36.0625C36.3236 36.6825 36.574 36.5788 36.7586 36.3942C36.9432 36.2096 37.0469 35.9592 37.0469 35.6981C37.0469 35.437 36.9432 35.1867 36.7586 35.0021C36.574 34.8175 36.3236 34.7137 36.0625 34.7137ZM8.17188 2.5575H29.8281V34.7137H23.9219V27.8231C23.9219 27.562 23.8182 27.3117 23.6336 27.1271C23.449 26.9425 23.1986 26.8387 22.9375 26.8387H15.0625C14.8014 26.8387 14.551 26.9425 14.3664 27.1271C14.1818 27.3117 14.0781 27.562 14.0781 27.8231V34.7137H8.17188V2.5575ZM21.9531 34.7137H16.0469V28.8075H21.9531V34.7137ZM12.7656 8.13562C12.7656 7.87455 12.8693 7.62417 13.0539 7.43956C13.2385 7.25496 13.4889 7.15125 13.75 7.15125H16.375C16.6361 7.15125 16.8865 7.25496 17.0711 7.43956C17.2557 7.62417 17.3594 7.87455 17.3594 8.13562C17.3594 8.39669 17.2557 8.64707 17.0711 8.83168C16.8865 9.01628 16.6361 9.12 16.375 9.12H13.75C13.4889 9.12 13.2385 9.01628 13.0539 8.83168C12.8693 8.64707 12.7656 8.39669 12.7656 8.13562ZM20.6406 8.13562C20.6406 7.87455 20.7443 7.62417 20.9289 7.43956C21.1135 7.25496 21.3639 7.15125 21.625 7.15125H24.25C24.5111 7.15125 24.7615 7.25496 24.9461 7.43956C25.1307 7.62417 25.2344 7.87455 25.2344 8.13562C25.2344 8.39669 25.1307 8.64707 24.9461 8.83168C24.7615 9.01628 24.5111 9.12 24.25 9.12H21.625C21.3639 9.12 21.1135 9.01628 20.9289 8.83168C20.7443 8.64707 20.6406 8.39669 20.6406 8.13562ZM12.7656 14.6981C12.7656 14.437 12.8693 14.1867 13.0539 14.0021C13.2385 13.8175 13.4889 13.7137 13.75 13.7137H16.375C16.6361 13.7137 16.8865 13.8175 17.0711 14.0021C17.2557 14.1867 17.3594 14.437 17.3594 14.6981C17.3594 14.9592 17.2557 15.2096 17.0711 15.3942C16.8865 15.5788 16.6361 15.6825 16.375 15.6825H13.75C13.4889 15.6825 13.2385 15.5788 13.0539 15.3942C12.8693 15.2096 12.7656 14.9592 12.7656 14.6981ZM20.6406 14.6981C20.6406 14.437 20.7443 14.1867 20.9289 14.0021C21.1135 13.8175 21.3639 13.7137 21.625 13.7137H24.25C24.5111 13.7137 24.7615 13.8175 24.9461 14.0021C25.1307 14.1867 25.2344 14.437 25.2344 14.6981C25.2344 14.9592 25.1307 15.2096 24.9461 15.3942C24.7615 15.5788 24.5111 15.6825 24.25 15.6825H21.625C21.3639 15.6825 21.1135 15.5788 20.9289 15.3942C20.7443 15.2096 20.6406 14.9592 20.6406 14.6981ZM13.75 22.245C13.4889 22.245 13.2385 22.1413 13.0539 21.9567C12.8693 21.7721 12.7656 21.5217 12.7656 21.2606C12.7656 20.9995 12.8693 20.7492 13.0539 20.5646C13.2385 20.38 13.4889 20.2762 13.75 20.2762H16.375C16.6361 20.2762 16.8865 20.38 17.0711 20.5646C17.2557 20.7492 17.3594 20.9995 17.3594 21.2606C17.3594 21.5217 17.2557 21.7721 17.0711 21.9567C16.8865 22.1413 16.6361 22.245 16.375 22.245H13.75ZM20.6406 21.2606C20.6406 20.9995 20.7443 20.7492 20.9289 20.5646C21.1135 20.38 21.3639 20.2762 21.625 20.2762H24.25C24.5111 20.2762 24.7615 20.38 24.9461 20.5646C25.1307 20.7492 25.2344 20.9995 25.2344 21.2606C25.2344 21.5217 25.1307 21.7721 24.9461 21.9567C24.7615 22.1413 24.5111 22.245 24.25 22.245H21.625C21.3639 22.245 21.1135 22.1413 20.9289 21.9567C20.7443 21.7721 20.6406 21.5217 20.6406 21.2606Z" fill="white"/>
</svg>
