<svg width="42" height="43" viewBox="0 0 42 43" fill="none" xmlns="http://www.w3.org/2000/svg">
<path d="M21.252 37.7969C12.1713 37.7461 4.81079 30.5606 4.81079 21.6356C4.81079 12.7106 12.1713 5.47437 21.252 5.47437C27.0288 5.47437 32.039 8.65937 35.042 12.8331C36.4683 14.815 37.7834 17.615 36.9067 21.8264C36.0317 26.0377 31.7057 28.7284 29.274 28.7284H25.3313C21.9223 28.7284 21.5994 31.937 23.0257 33.4499C24.3644 34.87 23.3853 37.8091 21.252 37.7969Z" stroke="white" stroke-linecap="round" stroke-linejoin="round"/>
<path d="M13.9387 18.8636C13.9388 19.2325 13.8662 19.5979 13.7251 19.9387C13.584 20.2796 13.3772 20.5894 13.1163 20.8503C12.8555 21.1112 12.5458 21.3181 12.205 21.4594C11.8642 21.6006 11.4989 21.6732 11.1299 21.6732C10.3848 21.6732 9.67014 21.3772 9.14323 20.8503C8.61633 20.3234 8.32031 19.6088 8.32031 18.8636C8.32031 18.1185 8.61633 17.4038 9.14323 16.8769C9.67014 16.35 10.3848 16.054 11.1299 16.054C11.4989 16.054 11.8642 16.1267 12.205 16.2679C12.5458 16.4091 12.8555 16.6161 13.1163 16.877C13.3772 17.1379 13.584 17.4476 13.7251 17.7885C13.8662 18.1294 13.9388 18.4947 13.9387 18.8636ZM33.6761 18.8636C33.6762 19.2326 33.6036 19.598 33.4624 19.9389C33.3213 20.2799 33.1143 20.5897 32.8534 20.8506C32.5925 21.1115 32.2827 21.3184 31.9418 21.4596C31.6008 21.6008 31.2354 21.6734 30.8664 21.6732C30.4975 21.6734 30.1322 21.6008 29.7913 21.4597C29.4504 21.3186 29.1407 21.1117 28.8798 20.8509C28.6189 20.5901 28.4119 20.2804 28.2707 19.9396C28.1295 19.5987 28.0568 19.2334 28.0568 18.8645C28.0566 18.4955 28.1291 18.1301 28.2701 17.7891C28.4112 17.4481 28.618 17.1383 28.8789 16.8773C29.1397 16.6163 29.4494 16.4092 29.7903 16.268C30.1312 16.1267 30.4966 16.054 30.8656 16.054C31.2346 16.0538 31.6001 16.1263 31.9412 16.2674C32.2822 16.4085 32.5921 16.6154 32.8531 16.8763C33.1141 17.1373 33.3211 17.4471 33.4623 17.7881C33.6036 18.1291 33.6762 18.4945 33.6761 18.8636ZM28.3884 11.6755C28.3884 12.4206 28.0924 13.1353 27.5655 13.6622C27.0386 14.1891 26.324 14.4851 25.5788 14.4851C24.8337 14.4851 24.119 14.1891 23.5921 13.6622C23.0652 13.1353 22.7692 12.4206 22.7692 11.6755C22.7691 11.3065 22.8417 10.9411 22.9828 10.6002C23.124 10.2592 23.3309 9.94945 23.5919 9.68853C23.8528 9.42761 24.1625 9.22066 24.5035 9.0795C24.8444 8.93835 25.2098 8.86575 25.5788 8.86587C25.9477 8.86575 26.3131 8.93832 26.6539 9.07942C26.9948 9.22052 27.3046 9.42739 27.5655 9.68822C27.8264 9.94905 28.0333 10.2587 28.1746 10.5996C28.3158 10.9404 28.3884 11.3066 28.3884 11.6755ZM19.2263 11.6755C19.2263 12.4204 18.9304 13.1348 18.4036 13.6616C17.8769 14.1883 17.1625 14.4842 16.4176 14.4842C15.8618 14.4844 15.3185 14.3198 14.8563 14.0111C14.3941 13.7024 14.0339 13.2636 13.8211 12.7502C13.6083 12.2368 13.5526 11.6718 13.661 11.1267C13.7694 10.5816 14.037 10.0809 14.43 9.68791C14.823 9.29493 15.3237 9.02732 15.8688 8.91894C16.4139 8.81055 16.9789 8.86627 17.4923 9.07903C18.0057 9.29179 18.4445 9.65204 18.7532 10.1142C19.0618 10.5764 19.2265 11.1197 19.2263 11.6755Z" stroke="white" stroke-linecap="round" stroke-linejoin="round"/>
</svg>
